<?xml version="1.0" standalone="no"?>
<!DOCTYPE svg PUBLIC "-//W3C//DTD SVG 20010904//EN"
 "http://www.w3.org/TR/2001/REC-SVG-20010904/DTD/svg10.dtd">
<svg version="1.0" xmlns="http://www.w3.org/2000/svg"
 width="1667.000000pt" height="1667.000000pt" viewBox="0 0 1667.000000 1667.000000"
 preserveAspectRatio="xMidYMid meet">
<metadata>
Created by potrace 1.14, written by Peter Selinger 2001-2017
</metadata>
<g transform="translate(0.000000,1667.000000) scale(0.100000,-0.100000)"
fill="#000000" stroke="none">
<path d="M0 8335 l0 -8335 8335 0 8335 0 0 8335 0 8335 -8335 0 -8335 0 0
-8335z m7855 5292 c281 -304 321 -348 370 -412 124 -159 473 -568 543 -635 15
-14 46 -50 70 -80 24 -30 108 -125 187 -210 193 -209 198 -214 262 -300 126
-166 270 -335 417 -490 83 -87 180 -199 220 -253 15 -20 37 -48 49 -60 12 -12
51 -56 87 -97 67 -77 92 -105 202 -225 94 -102 206 -231 258 -296 119 -150
183 -225 309 -360 271 -291 299 -327 269 -352 -21 -17 -88 -102 -88 -112 0 -4
-33 -51 -72 -103 -40 -52 -91 -118 -113 -147 -22 -29 -65 -84 -96 -122 -31
-37 -96 -126 -144 -198 -49 -71 -109 -155 -135 -185 -26 -30 -78 -95 -115
-145 -38 -49 -110 -139 -160 -200 -90 -109 -131 -161 -170 -215 -59 -81 -186
-244 -240 -305 -33 -38 -75 -92 -94 -118 -18 -26 -59 -78 -92 -115 -33 -37
-120 -146 -192 -242 -73 -96 -142 -186 -155 -200 -13 -14 -80 -99 -150 -190
-69 -91 -139 -178 -155 -195 -16 -16 -83 -102 -149 -190 -130 -172 -287 -372
-409 -519 -41 -50 -109 -136 -150 -191 -164 -219 -203 -270 -209 -275 -4 -3
-46 -52 -94 -110 -48 -58 -104 -114 -124 -125 -36 -19 -58 -20 -1067 -21 -566
-1 -1049 -3 -1071 -5 -25 -2 -48 2 -58 10 -30 25 -18 58 52 138 37 42 112 136
167 209 55 73 145 186 200 251 116 137 146 176 202 258 23 33 56 76 73 95 17
19 95 114 173 209 77 96 159 195 182 221 22 25 93 115 158 200 65 85 149 193
188 240 39 47 115 141 170 210 54 69 135 168 179 220 45 52 129 160 187 240
58 80 134 177 168 215 34 39 94 110 133 158 38 49 90 112 115 140 62 71 182
226 245 317 28 41 64 89 79 105 54 59 130 151 193 235 54 71 151 192 170 210
24 24 125 147 160 195 24 33 61 81 82 106 59 71 55 91 -44 200 -46 51 -109
124 -142 163 -32 39 -91 105 -130 146 -225 236 -335 358 -392 435 -16 22 -60
76 -99 121 -38 44 -79 92 -90 106 -11 14 -104 115 -206 224 -102 110 -207 224
-233 254 -102 120 -226 259 -322 359 -156 164 -194 207 -297 336 -53 66 -107
132 -119 146 -88 103 -170 194 -298 329 -159 168 -276 299 -330 370 -18 25
-63 77 -99 115 -58 62 -136 147 -306 335 -27 30 -75 81 -105 113 -64 67 -77
91 -62 109 8 10 229 13 1109 11 l1098 -2 50 -54z m3213 -9382 c12 -3 27 -16
31 -28 9 -24 13 -1042 5 -1089 -3 -17 -18 -35 -38 -47 -33 -21 -40 -21 -2823
-21 -2750 0 -2790 0 -2808 20 -16 18 -17 59 -17 585 0 372 3 569 10 578 8 9
595 12 2814 10 1541 -1 2813 -5 2826 -8z"/>
</g>
</svg>
