<?xml version="1.0" standalone="no"?>
<!DOCTYPE svg PUBLIC "-//W3C//DTD SVG 20010904//EN"
 "http://www.w3.org/TR/2001/REC-SVG-20010904/DTD/svg10.dtd">
<svg version="1.0" xmlns="http://www.w3.org/2000/svg"
 width="1667.000000pt" height="1667.000000pt" viewBox="0 0 1667.000000 1667.000000"
 preserveAspectRatio="xMidYMid meet">
<metadata>
Created by potrace 1.14, written by Peter Selinger 2001-2017
</metadata>
<g transform="translate(0.000000,1667.000000) scale(0.100000,-0.100000)"
fill="#000000" stroke="none">
<path d="M0 8335 l0 -8335 8335 0 8335 0 0 8335 0 8335 -8335 0 -8335 0 0
-8335z m6740 5358 l1065 -3 30 -33 c17 -18 62 -69 100 -112 39 -44 108 -120
155 -170 47 -49 123 -137 170 -195 46 -58 93 -114 103 -125 10 -11 37 -45 60
-75 23 -30 44 -57 47 -60 3 -3 43 -48 89 -100 46 -52 124 -140 175 -194 50
-55 97 -109 105 -120 19 -28 137 -160 286 -321 66 -71 134 -148 150 -170 116
-157 296 -369 466 -550 95 -101 141 -154 174 -200 16 -22 56 -70 90 -106 54
-60 224 -250 273 -307 11 -12 53 -59 95 -105 77 -84 176 -203 259 -308 46 -60
146 -172 288 -324 227 -245 218 -228 158 -292 -24 -27 -60 -73 -80 -104 -19
-30 -64 -91 -99 -135 -35 -44 -75 -96 -89 -114 -14 -18 -43 -56 -66 -84 -22
-28 -89 -121 -149 -206 -60 -85 -132 -182 -160 -215 -29 -33 -80 -98 -115
-145 -35 -47 -95 -123 -135 -170 -39 -47 -123 -152 -185 -235 -62 -82 -154
-199 -204 -260 -50 -60 -111 -137 -136 -170 -24 -33 -65 -82 -91 -110 -25 -27
-101 -124 -169 -215 -68 -91 -144 -190 -170 -220 -26 -30 -93 -116 -150 -190
-57 -74 -129 -164 -160 -200 -31 -36 -111 -139 -179 -228 -131 -176 -257 -337
-345 -444 -31 -37 -122 -154 -202 -260 -81 -106 -171 -220 -199 -253 -56 -65
-63 -73 -125 -152 -74 -94 25 -86 -1082 -83 -707 1 -1002 -2 -1071 -10 -85
-11 -97 -10 -121 5 -40 27 -35 66 17 123 24 26 54 58 66 72 13 14 67 84 121
155 54 72 122 157 151 191 96 108 146 172 248 313 29 40 94 122 144 181 51 59
115 136 142 171 28 35 84 104 125 154 42 49 125 155 185 235 60 80 136 177
169 215 34 39 99 119 146 179 47 60 117 146 155 191 86 101 195 239 255 323
25 35 78 102 117 150 78 94 269 327 370 451 34 42 92 119 130 170 37 52 83
113 102 135 53 65 115 138 126 150 6 6 46 58 89 116 64 85 232 288 256 310 3
3 47 60 98 128 68 91 92 131 92 153 0 38 -134 196 -480 565 -115 123 -213 234
-254 289 -21 28 -52 66 -70 85 -18 19 -54 62 -81 95 -53 65 -166 192 -286 319
-154 164 -203 218 -224 245 -25 36 -133 156 -245 276 -255 271 -234 248 -434
495 -39 47 -84 99 -100 116 -17 18 -57 63 -88 100 -31 38 -67 78 -80 90 -43
38 -330 353 -369 405 -45 59 -149 176 -264 299 -44 47 -103 110 -129 140 -27
30 -87 94 -133 141 -46 47 -83 94 -83 104 0 34 30 56 64 48 17 -4 510 -8 1096
-10z m4316 -9433 c7 0 21 -8 33 -17 l22 -18 1 -559 1 -558 -27 -27 -26 -26
-2806 -2 c-2278 -2 -2808 0 -2818 10 -8 7 -16 23 -20 35 -5 16 -11 977 -6
1133 0 9 9 20 20 25 14 6 4809 10 5626 4z"/>
</g>
</svg>
